<svg version="1.1" id="Layer_1" xmlns="http://www.w3.org/2000/svg" xmlns:xlink="http://www.w3.org/1999/xlink" x="0px" y="0px"
	 width="100%" viewBox="0 0 1033 192" enable-background="new 0 0 1033 192" xml:space="preserve">
<path fill="#FFE500" opacity="1.000000" stroke="none" 
	d="
M238.000000,193.000000 
	C218.312439,193.000000 198.624878,193.000000 178.468658,192.531342 
	C178.000000,155.433685 178.000000,118.804703 178.000000,82.175713 
	C177.511978,82.103622 177.023956,82.031532 176.535919,81.959442 
	C176.011429,83.258614 175.410721,84.532738 174.974152,85.860817 
	C170.299988,100.079994 165.640808,114.304131 160.999039,128.533936 
	C153.990372,150.019699 146.998825,171.511032 140.000000,193.000000 
	C126.979103,193.000000 113.958214,193.000000 100.467300,192.602203 
	C99.663918,190.954102 99.395058,189.682388 98.987785,188.456650 
	C87.563530,154.073792 76.137352,119.691521 64.650642,85.329506 
	C64.123703,83.753189 63.031925,82.365700 62.203217,80.890259 
	C61.802143,81.045410 61.401073,81.200562 61.000000,81.355713 
	C61.000000,118.570473 61.000000,155.785233 61.000000,193.000000 
	C41.026226,193.000000 21.052452,193.000000 1.039339,193.000000 
	C1.039339,129.110168 1.039339,65.220306 1.039339,1.000000 
	C28.019997,1.000000 55.041340,1.000000 82.532578,1.389285 
	C85.009178,7.092307 86.963051,12.426708 89.031609,17.716261 
	C98.842552,42.804066 108.684769,67.879639 118.925377,94.004303 
	C120.254921,91.758484 121.314995,90.397804 121.931572,88.859375 
	C127.679024,74.518997 133.327576,60.139042 139.049927,45.788551 
	C145.007309,30.848671 151.014557,15.928687 157.000000,1.000003 
	C183.687561,1.000000 210.375122,1.000000 237.531342,1.468657 
	C238.000000,65.624878 238.000000,129.312439 238.000000,193.000000 
z"/>
<path fill="#FFE500" opacity="1.000000" stroke="none" 
	d="
M811.000000,193.000000 
	C788.312439,193.000000 765.624878,193.000000 742.366211,192.660995 
	C729.020081,167.874908 716.244934,143.427826 703.636292,119.299316 
	C695.891052,119.299316 688.624084,119.299316 681.000000,119.299316 
	C681.000000,144.064529 681.000000,168.532257 681.000000,193.000000 
	C661.312439,193.000000 641.624878,193.000000 621.468628,192.531342 
	C621.000000,128.375122 621.000000,64.687561 621.000000,1.000000 
	C674.020874,1.000000 727.041809,1.000000 780.679321,1.344630 
	C800.152344,6.578324 811.611633,21.204668 811.076965,41.140289 
	C810.684570,55.770603 811.014282,70.419937 810.979858,85.060699 
	C810.976013,86.695938 810.832214,88.356979 810.521851,89.961281 
	C807.774048,104.164864 798.240784,112.309975 785.337646,116.667274 
	C779.458862,118.652512 772.973267,118.840553 766.588806,119.871880 
	C771.363403,127.662048 776.310730,135.663742 781.188660,143.707474 
	C791.145508,160.126358 801.065063,176.567841 811.000000,193.000000 
M757.000000,65.331482 
	C757.000000,59.509167 757.007446,53.686840 756.998047,47.864540 
	C756.986694,40.813248 755.238708,39.007328 748.353027,39.003845 
	C727.559082,38.993320 706.765198,39.000053 685.971252,39.000061 
	C684.388550,39.000061 682.805847,39.000061 681.405518,39.000061 
	C681.405518,51.778683 681.405518,63.817757 681.405518,75.999985 
	C703.599426,75.999985 725.388184,76.007057 747.176941,75.996384 
	C755.477905,75.992317 756.981262,74.486099 757.000000,65.331482 
z"/>
<path fill="#FFE500" opacity="1.000000" stroke="none" 
	d="
M861.000000,0.999997 
	C909.354248,1.000000 957.708435,1.000000 1006.647705,1.348766 
	C1014.462280,4.585945 1021.571289,7.685769 1026.551147,14.061916 
	C1029.098877,17.323973 1031.521118,20.684153 1034.000000,24.000004 
	C1034.000000,71.020897 1034.000000,118.041786 1033.655151,165.643982 
	C1032.881104,166.898849 1032.307007,167.520660 1032.045532,168.253998 
	C1029.450439,175.532837 1025.362915,181.830688 1018.566956,185.634369 
	C1013.315552,188.573578 1007.541626,190.579285 1002.000000,193.000000 
	C955.979126,193.000000 909.958191,193.000000 863.352295,192.651245 
	C861.613220,191.776871 860.491699,191.158630 859.300049,190.739731 
	C844.117859,185.402374 834.002136,171.206635 834.000916,155.169998 
	C833.997986,115.250488 833.843750,75.329987 834.097839,35.412094 
	C834.171326,23.863708 838.834473,14.083462 848.892273,7.621070 
	C852.752563,5.140732 856.953979,3.191321 861.000000,0.999997 
M894.000000,108.500000 
	C894.000000,120.318275 893.973877,132.136627 894.010010,143.954788 
	C894.031006,150.821930 898.107727,154.974518 904.901306,154.987061 
	C924.542847,155.023315 944.184814,154.945602 963.826050,155.032928 
	C969.737061,155.059219 974.245850,151.727631 974.166016,144.938187 
	C973.792297,113.149796 974.000732,81.354561 973.999390,49.561771 
	C973.999084,42.635120 971.452454,40.011692 964.618652,40.005989 
	C944.644104,39.989319 924.669617,39.992039 904.695068,40.003986 
	C896.761475,40.008732 894.011597,42.722122 894.005127,50.572605 
	C893.989502,69.548393 894.000000,88.524200 894.000000,108.500000 
z"/>
<path fill="#FFE500" opacity="1.000000" stroke="none" 
	d="
M417.000000,193.000000 
	C365.312439,193.000000 313.624878,193.000000 261.468658,192.531342 
	C261.000000,128.375122 261.000000,64.687561 261.000000,1.000000 
	C312.354218,1.000000 363.708466,1.000000 415.531342,1.468657 
	C416.000000,14.193960 416.000000,26.450605 416.000000,39.220890 
	C383.964722,39.220890 352.588593,39.220890 321.250488,39.220890 
	C321.250488,52.011189 321.250488,64.274529 321.250488,77.059486 
	C352.872131,77.059486 384.248199,77.059486 415.653503,77.059486 
	C415.653503,89.968925 415.653503,102.350334 415.653503,115.251419 
	C383.933868,115.251419 352.557648,115.251419 321.265350,115.251419 
	C321.265350,128.708298 321.265350,141.638321 321.265350,155.088959 
	C353.235291,155.088959 384.944580,155.088959 417.000000,155.088959 
	C417.000000,168.074020 417.000000,180.537018 417.000000,193.000000 
z"/>
<path fill="#FFFFFF" opacity="1.000000" stroke="none" 
	d="
M417.468658,193.000000 
	C417.000000,180.537018 417.000000,168.074020 417.000000,155.088959 
	C384.944580,155.088959 353.235291,155.088959 321.265350,155.088959 
	C321.265350,141.638321 321.265350,128.708298 321.265350,115.251419 
	C352.557648,115.251419 383.933868,115.251419 415.653503,115.251419 
	C415.653503,102.350334 415.653503,89.968925 415.653503,77.059486 
	C384.248199,77.059486 352.872131,77.059486 321.250488,77.059486 
	C321.250488,64.274529 321.250488,52.011189 321.250488,39.220890 
	C352.588593,39.220890 383.964722,39.220890 416.000000,39.220890 
	C416.000000,26.450605 416.000000,14.193960 416.000000,1.468657 
	C421.354919,1.000000 426.709869,1.000000 432.532410,1.468657 
	C433.000000,14.188742 433.000000,26.440170 433.000000,39.202820 
	C452.018219,39.202820 470.394958,39.202820 489.000000,39.202820 
	C489.000000,90.816620 489.000000,141.908310 489.000000,193.000000 
	C465.312439,193.000000 441.624878,193.000000 417.468658,193.000000 
z"/>
<path fill="#FFE500" opacity="1.000000" stroke="none" 
	d="
M489.468658,193.000000 
	C489.000000,141.908310 489.000000,90.816620 489.000000,39.202820 
	C470.394958,39.202820 452.018219,39.202820 433.000000,39.202820 
	C433.000000,26.440170 433.000000,14.188742 433.000000,1.468657 
	C490.020905,1.000000 547.041809,1.000000 604.531372,1.468657 
	C605.000000,14.188746 605.000000,26.440178 605.000000,39.202827 
	C585.981812,39.202827 567.605042,39.202827 549.000000,39.202827 
	C549.000000,90.816620 549.000000,141.908310 549.000000,193.000000 
	C529.312439,193.000000 509.624878,193.000000 489.468658,193.000000 
z"/>
<path fill="#FFFFFF" opacity="1.000000" stroke="none" 
	d="
M549.468628,193.000000 
	C549.000000,141.908310 549.000000,90.816620 549.000000,39.202827 
	C567.605042,39.202827 585.981812,39.202827 605.000000,39.202827 
	C605.000000,26.440178 605.000000,14.188746 605.000000,1.468657 
	C610.022095,1.000000 615.044189,1.000000 620.533142,1.000000 
	C621.000000,64.687561 621.000000,128.375122 621.000000,192.531342 
	C597.312439,193.000000 573.624878,193.000000 549.468628,193.000000 
z"/>
<path fill="#FFFFFF" opacity="1.000000" stroke="none" 
	d="
M860.531372,0.999997 
	C856.953979,3.191321 852.752563,5.140732 848.892273,7.621070 
	C838.834473,14.083462 834.171326,23.863708 834.097839,35.412094 
	C833.843750,75.329987 833.997986,115.250488 834.000916,155.169998 
	C834.002136,171.206635 844.117859,185.402374 859.300049,190.739731 
	C860.491699,191.158630 861.613220,191.776871 862.883667,192.651245 
	C845.979126,193.000000 828.958191,193.000000 811.468628,193.000000 
	C801.065063,176.567841 791.145508,160.126358 781.188660,143.707474 
	C776.310730,135.663742 771.363403,127.662048 766.588806,119.871880 
	C772.973267,118.840553 779.458862,118.652512 785.337646,116.667274 
	C798.240784,112.309975 807.774048,104.164864 810.521851,89.961281 
	C810.832214,88.356979 810.976013,86.695938 810.979858,85.060699 
	C811.014282,70.419937 810.684570,55.770603 811.076965,41.140289 
	C811.611633,21.204668 800.152344,6.578324 781.147949,1.344630 
	C807.354248,1.000000 833.708435,1.000000 860.531372,0.999997 
z"/>
<path fill="#FFFFFF" opacity="1.000000" stroke="none" 
	d="
M260.531372,1.000000 
	C261.000000,64.687561 261.000000,128.375122 261.000000,192.531342 
	C253.645752,193.000000 246.291504,193.000000 238.468628,193.000000 
	C238.000000,129.312439 238.000000,65.624878 238.000000,1.468657 
	C245.354248,1.000000 252.708496,1.000000 260.531372,1.000000 
z"/>
<path fill="#FFFFFF" opacity="1.000000" stroke="none" 
	d="
M156.531342,1.000003 
	C151.014557,15.928687 145.007309,30.848671 139.049927,45.788551 
	C133.327576,60.139042 127.679024,74.518997 121.931572,88.859375 
	C121.314995,90.397804 120.254921,91.758484 118.925377,94.004303 
	C108.684769,67.879639 98.842552,42.804066 89.031609,17.716261 
	C86.963051,12.426708 85.009178,7.092307 83.001236,1.389285 
	C107.354225,1.000000 131.708450,1.000000 156.531342,1.000003 
z"/>
<path fill="#FFFFFF" opacity="1.000000" stroke="none" 
	d="
M681.468628,193.000000 
	C681.000000,168.532257 681.000000,144.064529 681.000000,119.299316 
	C688.624084,119.299316 695.891052,119.299316 703.636292,119.299316 
	C716.244934,143.427826 729.020081,167.874908 741.897583,192.660995 
	C721.979126,193.000000 701.958191,193.000000 681.468628,193.000000 
z"/>
<path fill="#FFFFFF" opacity="1.000000" stroke="none" 
	d="
M61.468658,193.000000 
	C61.000000,155.785233 61.000000,118.570473 61.000000,81.355713 
	C61.401073,81.200562 61.802143,81.045410 62.203217,80.890259 
	C63.031925,82.365700 64.123703,83.753189 64.650642,85.329506 
	C76.137352,119.691521 87.563530,154.073792 98.987785,188.456650 
	C99.395058,189.682388 99.663918,190.954102 99.998642,192.602203 
	C87.312439,193.000000 74.624878,193.000000 61.468658,193.000000 
z"/>
<path fill="#FFFFFF" opacity="1.000000" stroke="none" 
	d="
M140.468658,193.000000 
	C146.998825,171.511032 153.990372,150.019699 160.999039,128.533936 
	C165.640808,114.304131 170.299988,100.079994 174.974152,85.860817 
	C175.410721,84.532738 176.011429,83.258614 176.535919,81.959442 
	C177.023956,82.031532 177.511978,82.103622 178.000000,82.175713 
	C178.000000,118.804703 178.000000,155.433685 178.000000,192.531342 
	C165.645767,193.000000 153.291550,193.000000 140.468658,193.000000 
z"/>
<path fill="#FFFFFF" opacity="1.000000" stroke="none" 
	d="
M1002.468628,193.000000 
	C1007.541626,190.579285 1013.315552,188.573578 1018.566956,185.634369 
	C1025.362915,181.830688 1029.450439,175.532837 1032.045532,168.253998 
	C1032.307007,167.520660 1032.881104,166.898849 1033.655151,166.112640 
	C1034.000000,174.932724 1034.000000,183.865433 1034.000000,193.000000 
	C1023.646667,193.000000 1013.291992,193.000000 1002.468628,193.000000 
z"/>
<path fill="#FFFFFF" opacity="1.000000" stroke="none" 
	d="
M1034.000000,23.531265 
	C1031.521118,20.684153 1029.098877,17.323973 1026.551147,14.061916 
	C1021.571289,7.685769 1014.462280,4.585945 1007.116333,1.348766 
	C1015.920471,1.000000 1024.840942,1.000000 1034.000000,1.000000 
	C1034.000000,8.352462 1034.000000,15.707494 1034.000000,23.531265 
z"/>
<path fill="#FFFFFF" opacity="1.000000" stroke="none" 
	d="
M757.000000,65.805405 
	C756.981262,74.486099 755.477905,75.992317 747.176941,75.996384 
	C725.388184,76.007057 703.599426,75.999985 681.405518,75.999985 
	C681.405518,63.817757 681.405518,51.778683 681.405518,39.000061 
	C682.805847,39.000061 684.388550,39.000061 685.971252,39.000061 
	C706.765198,39.000053 727.559082,38.993320 748.353027,39.003845 
	C755.238708,39.007328 756.986694,40.813248 756.998047,47.864540 
	C757.007446,53.686840 757.000000,59.509167 757.000000,65.805405 
z"/>
<path fill="#FFFFFF" opacity="1.000000" stroke="none" 
	d="
M894.000000,108.000000 
	C894.000000,88.524200 893.989502,69.548393 894.005127,50.572605 
	C894.011597,42.722122 896.761475,40.008732 904.695068,40.003986 
	C924.669617,39.992039 944.644104,39.989319 964.618652,40.005989 
	C971.452454,40.011692 973.999084,42.635120 973.999390,49.561771 
	C974.000732,81.354561 973.792297,113.149796 974.166016,144.938187 
	C974.245850,151.727631 969.737061,155.059219 963.826050,155.032928 
	C944.184814,154.945602 924.542847,155.023315 904.901306,154.987061 
	C898.107727,154.974518 894.031006,150.821930 894.010010,143.954788 
	C893.973877,132.136627 894.000000,120.318275 894.000000,108.000000 
z"/>
</svg>